P2
100 92
255
14 13 11 16 30 43 51 56 61 62 62 61 60 60 59 58 57 57 57 57 59 60 62 65 66 66 67 67 67 68 69 70 71 70 70 68 62 58 52 39 30 26 25 27 28 28 29 30 32 33 35 37 38 35 33 28 22 18 14 12 10 7 7 10 16 23 26 28 29 27 25 21 13 7 6 5 5 6 6 11 22 32 40 46 47 47 44 40 28 17 9 4 4 4 5 4 4 3 3 3 
5 5 6 12 25 39 48 53 58 62 61 59 57 58 58 57 56 56 56 57 59 60 62 65 66 67 67 68 68 68 69 69 71 71 70 66 61 57 50 37 30 28 26 26 25 26 27 27 28 31 33 34 33 31 28 25 20 15 13 10 7 6 8 12 19 24 27 28 28 28 28 24 15 9 5 4 4 5 7 12 20 31 42 49 49 48 44 37 25 12 6 3 3 3 3 3 3 3 3 3 
4 4 4 6 17 31 42 49 53 59 60 57 56 56 56 55 54 53 54 55 58 59 61 64 66 66 67 67 69 69 68 68 70 70 68 63 57 52 46 36 29 26 26 25 25 23 24 25 25 25 27 28 27 27 22 19 20 14 9 8 5 6 8 13 20 25 27 30 30 28 27 25 17 11 6 4 4 4 7 11 21 33 43 47 46 44 40 33 20 8 4 3 3 3 3 3 3 3 3 3 
3 4 3 3 11 24 36 44 50 56 59 58 57 56 55 54 53 52 52 53 56 58 61 64 66 66 66 67 68 68 68 69 69 70 68 62 56 48 41 34 30 26 24 23 21 21 21 22 25 24 23 24 23 24 20 18 15 10 6 5 5 6 8 13 21 26 29 31 31 29 28 24 17 11 6 4 4 5 5 9 20 33 42 44 42 41 37 30 18 6 3 3 3 3 3 3 3 3 3 3 
3 4 4 4 7 17 28 38 45 52 57 59 58 55 54 53 51 51 52 54 56 59 61 64 66 66 65 66 67 67 69 70 70 68 65 58 50 44 37 31 29 29 25 20 19 20 18 11 3 5 12 15 18 21 16 12 12 10 6 5 7 8 10 13 20 25 28 30 30 28 26 21 15 11 6 4 4 4 6 10 18 28 34 36 35 35 30 25 14 4 3 3 3 3 3 3 3 3 3 3 
3 3 4 4 4 11 25 36 45 51 56 59 57 54 53 53 52 52 53 55 57 59 61 64 65 65 65 66 67 67 69 71 68 64 58 53 45 36 36 31 27 19 21 20 8 2 9 47 90 76 38 21 4 2 13 17 3 2 5 8 8 10 11 14 18 22 26 28 27 26 23 18 14 10 6 4 4 4 6 9 16 22 26 28 29 28 24 17 7 3 3 3 3 3 3 3 3 3 2 3 
3 3 4 4 5 12 24 36 46 52 56 59 58 55 54 54 53 53 53 55 57 59 61 63 64 64 65 66 68 68 69 68 62 60 55 47 41 33 19 10 28 47 25 19 55 100 158 195 190 190 186 167 112 82 157 175 118 93 28 3 14 11 10 13 15 18 22 24 24 22 18 15 12 8 6 4 4 4 4 6 11 16 19 22 22 20 17 9 4 3 3 3 3 3 3 3 3 3 2 3 
3 3 4 4 8 16 26 37 45 53 58 61 59 56 56 55 54 53 54 56 58 60 62 64 65 65 66 67 68 69 68 66 63 57 51 42 29 15 50 115 173 193 166 155 204 204 198 182 178 182 179 180 188 197 190 188 190 205 139 6 8 8 7 9 11 14 16 18 18 17 14 12 9 6 5 3 4 4 4 4 6 9 13 14 13 11 7 4 3 3 3 3 3 3 3 3 3 3 3 3 
3 3 4 4 12 20 30 41 48 55 60 62 60 58 57 56 54 53 54 57 58 60 62 65 66 66 66 68 69 70 66 65 58 44 32 33 37 122 199 199 190 185 184 187 182 182 186 187 187 185 185 182 182 182 187 185 182 173 208 116 2 9 5 5 7 9 11 13 12 13 11 9 7 4 3 3 4 4 4 4 4 5 8 9 7 6 4 3 3 3 3 3 3 3 4 4 4 4 4 3 
3 4 6 8 15 24 33 41 50 56 60 62 60 60 58 56 54 54 55 57 59 61 62 64 66 66 68 68 69 70 65 60 45 82 126 121 136 189 188 185 185 188 184 181 183 185 190 191 189 190 191 189 191 191 189 189 187 192 209 138 2 7 5 4 5 7 8 9 9 8 8 6 5 4 4 3 5 4 3 4 5 4 5 5 4 4 4 3 3 3 3 3 3 3 3 3 3 4 4 3 
4 4 6 10 17 26 34 39 47 54 57 60 60 62 59 55 55 53 54 57 59 61 61 63 65 67 70 71 72 70 65 51 104 167 154 152 161 171 182 189 190 190 186 188 187 187 191 192 191 192 191 190 191 191 191 189 192 189 204 110 2 7 4 5 6 5 5 5 6 6 9 8 8 8 5 4 9 6 6 3 4 6 5 4 4 4 3 3 3 3 3 3 3 3 3 3 3 3 3 3 
9 8 8 12 19 27 33 38 43 50 55 60 61 62 59 57 55 51 51 54 55 57 58 61 63 66 69 73 73 76 53 120 162 150 153 148 173 180 184 190 191 190 188 189 192 192 191 192 192 193 193 193 192 192 193 191 195 188 204 79 1 6 3 5 5 4 4 4 4 8 9 5 2 1 5 3 0 2 6 7 6 4 4 4 4 4 3 3 3 3 3 3 3 3 3 3 3 3 3 3 
15 14 15 17 21 27 31 36 42 49 55 58 60 61 59 58 56 51 47 46 47 50 54 57 60 64 67 73 75 64 99 175 169 160 160 155 171 184 185 189 192 193 190 190 193 194 193 192 194 195 193 195 194 192 195 193 199 189 203 57 2 6 3 3 4 3 4 4 7 4 3 6 55 121 166 143 85 60 7 2 5 7 5 4 5 4 3 3 3 3 3 3 3 3 3 3 3 3 3 3 
20 19 21 21 22 25 29 34 42 49 55 59 60 61 59 59 56 51 46 39 40 46 50 52 55 59 63 72 65 97 179 174 168 168 167 163 170 182 184 186 193 194 193 192 193 193 192 193 195 196 195 196 195 194 196 196 199 194 197 35 2 5 5 5 4 5 7 3 1 11 115 162 191 208 197 200 206 198 144 60 1 4 7 4 6 5 3 3 3 3 3 3 3 3 3 3 3 3 3 3 
25 22 22 21 22 24 29 33 41 49 56 61 61 62 60 59 57 50 45 38 35 39 43 45 48 52 58 65 66 158 191 176 175 173 173 169 173 179 186 188 191 192 195 195 194 194 192 193 195 198 198 197 194 196 198 199 198 200 182 14 2 6 5 4 8 5 3 29 74 155 197 186 185 178 186 185 179 182 198 209 131 15 3 9 9 6 3 3 3 3 3 3 3 3 3 3 3 3 3 3 
28 25 23 23 23 25 30 34 42 50 58 62 63 64 64 63 59 51 45 40 34 30 33 37 40 44 53 59 65 176 190 185 181 175 178 176 175 176 185 190 191 190 194 195 195 197 195 193 196 199 199 197 196 200 199 200 198 204 164 4 4 4 5 7 2 19 131 180 194 186 176 180 183 188 190 188 189 189 184 185 209 174 34 2 8 5 3 3 3 3 3 3 3 3 3 3 3 3 3 3 
30 28 27 27 27 28 32 37 45 53 60 66 68 69 69 69 64 54 45 38 32 25 24 27 33 38 48 51 84 185 191 191 184 178 179 178 174 177 187 191 193 191 194 196 196 198 197 196 196 197 199 197 198 204 201 201 199 207 157 3 4 5 7 1 50 168 199 181 176 178 187 188 190 193 188 191 195 189 188 192 184 197 185 38 2 5 3 3 3 3 3 3 3 3 3 3 3 3 3 3 
36 33 30 29 30 32 36 41 47 55 63 70 73 76 75 73 66 56 44 36 29 21 16 18 25 33 43 38 102 202 183 199 191 182 184 179 177 179 187 190 193 192 196 198 198 197 198 196 197 201 202 197 199 203 202 202 198 208 158 4 6 4 9 80 191 190 175 180 182 187 190 187 192 192 194 195 197 195 193 197 189 177 196 155 3 7 5 6 5 4 3 3 3 3 3 3 3 3 3 3 
41 37 33 31 33 38 43 46 52 59 67 73 76 80 80 74 66 59 48 40 33 23 15 15 18 25 37 37 63 188 188 198 195 185 185 184 180 179 186 188 194 193 195 196 197 197 200 197 198 204 202 198 201 202 202 202 198 205 163 6 7 4 130 192 181 182 186 184 187 188 188 189 190 194 196 195 195 195 199 194 189 192 180 197 81 0 9 5 6 3 3 4 3 3 3 3 3 3 2 2 
44 40 36 36 39 44 49 53 58 64 70 75 77 80 80 74 67 61 52 44 38 28 20 17 14 21 30 33 55 191 189 195 199 192 185 184 184 182 184 188 194 196 195 194 200 200 202 201 201 203 202 202 201 201 204 203 198 206 169 8 0 104 202 175 187 189 188 188 189 190 190 191 195 196 195 195 195 196 196 195 191 190 185 185 191 58 0 9 6 4 3 4 4 3 3 3 3 3 2 2 
44 40 37 38 43 48 54 57 63 68 72 76 77 77 76 73 67 63 55 48 43 33 23 19 13 17 23 30 43 176 191 192 197 197 189 184 187 184 185 191 191 194 196 196 202 200 202 202 201 202 203 201 202 203 205 204 200 201 181 7 55 194 185 183 190 194 192 191 191 194 195 194 196 196 195 195 195 197 194 195 194 188 192 187 187 189 33 3 5 3 3 3 3 3 3 3 3 3 2 2 
42 39 38 38 43 49 56 61 65 69 71 74 75 74 71 71 67 64 59 53 47 37 29 24 16 16 19 24 39 176 195 195 199 195 191 188 187 185 188 194 192 194 196 195 201 200 201 203 202 205 203 202 202 204 205 204 200 199 198 25 156 196 185 189 190 194 197 195 196 196 197 197 195 196 196 196 195 196 197 193 194 191 187 190 180 196 145 3 7 4 4 3 3 3 3 3 3 2 2 2 
41 39 39 41 46 52 57 64 67 69 69 71 72 69 66 65 64 60 58 53 46 40 35 29 20 15 14 25 29 168 198 195 198 198 196 191 188 191 188 193 193 193 197 195 199 201 201 206 205 206 202 203 202 204 203 204 201 200 196 85 178 184 188 188 191 191 201 198 197 198 200 198 196 197 197 196 196 194 194 192 191 190 189 187 182 174 201 94 3 7 4 3 4 4 3 3 2 2 2 2 
41 41 42 47 55 60 62 66 70 72 69 66 65 63 60 60 61 59 56 51 47 45 42 33 22 15 13 20 24 160 201 196 199 198 197 192 189 194 190 190 193 191 198 199 197 201 202 206 204 203 203 203 202 204 200 204 204 201 197 164 182 182 184 187 190 194 202 196 197 204 203 199 198 198 197 197 196 195 194 190 190 191 189 185 179 175 183 171 15 4 5 3 4 3 3 3 2 2 2 2 
52 47 46 53 61 69 71 70 74 76 70 63 60 58 55 54 57 57 53 49 47 47 46 37 22 12 15 20 11 136 206 197 204 197 195 191 189 194 196 191 189 193 196 203 198 200 203 203 203 201 204 204 201 206 200 203 204 199 197 189 182 183 181 187 190 197 198 194 203 205 200 201 201 198 198 198 197 196 194 191 191 192 189 186 182 178 170 187 110 1 7 6 4 4 3 3 2 2 2 2 
63 59 58 63 71 77 79 78 76 76 72 63 56 52 47 49 53 53 54 49 51 50 47 35 23 15 14 19 10 101 204 194 201 198 192 190 190 194 196 195 187 191 194 202 199 199 204 203 205 204 206 202 199 205 199 203 205 199 196 189 184 181 182 186 190 197 196 198 205 202 202 201 200 199 199 198 197 196 195 192 191 193 191 187 183 178 175 169 179 37 3 9 5 5 3 3 2 2 2 2 
72 72 72 75 80 84 87 88 83 77 73 64 53 46 42 45 50 50 53 53 47 51 47 38 26 18 16 18 17 43 174 194 201 195 189 188 188 190 195 196 190 188 196 202 202 200 203 203 203 204 205 203 199 206 198 204 206 200 198 191 183 181 183 186 190 195 196 201 204 202 204 201 199 201 198 197 195 194 192 191 189 188 187 184 182 181 175 168 176 81 2 8 5 5 3 3 3 2 2 2 
89 87 86 86 90 91 92 92 88 81 72 62 51 42 36 39 48 51 37 39 56 48 32 18 14 17 21 20 24 8 114 189 200 196 189 189 189 186 192 192 192 185 190 198 199 201 203 201 203 203 203 208 201 207 197 205 205 201 196 193 184 182 183 187 192 194 198 205 205 203 202 201 201 200 197 196 194 192 190 189 187 185 184 182 180 180 176 163 172 70 3 14 7 4 4 3 3 3 2 2 
104 102 101 99 99 100 100 99 91 85 74 63 51 37 31 36 32 50 129 156 168 170 143 116 68 22 5 10 17 22 44 183 187 193 188 189 189 185 185 190 192 187 186 193 201 201 201 202 206 201 205 205 202 203 194 203 202 201 195 196 184 182 183 187 193 195 202 207 203 205 204 201 200 197 196 194 193 191 190 189 187 186 185 182 179 177 177 167 167 103 8 17 9 7 4 4 3 3 2 2 
117 115 113 110 109 110 109 105 96 88 76 64 50 37 30 14 69 179 197 195 192 197 197 205 200 177 125 67 22 6 3 93 184 186 188 182 189 189 181 185 189 189 183 187 198 199 201 207 206 201 205 206 202 200 193 203 199 201 195 196 186 183 184 189 194 196 207 202 204 205 203 200 198 197 196 194 193 192 191 190 188 187 185 182 180 177 174 167 176 115 10 24 13 10 5 3 3 2 2 2 
126 120 118 115 113 115 115 110 101 91 78 64 51 37 18 61 175 194 194 196 192 192 194 193 195 199 204 203 171 110 50 2 86 175 185 183 183 187 184 181 181 186 183 181 192 201 199 205 205 201 201 207 200 199 191 199 197 200 194 196 185 184 185 190 191 199 206 199 205 202 201 199 197 197 197 195 194 192 192 192 189 187 184 182 181 176 173 165 170 126 25 27 20 13 7 3 3 2 2 2 
138 128 121 119 118 116 115 111 103 94 83 69 57 40 35 172 194 188 191 194 197 199 197 194 195 197 192 191 203 203 190 137 71 88 134 169 185 178 182 181 178 180 181 181 184 199 197 201 207 203 202 204 200 196 191 196 196 200 193 194 181 187 186 189 192 203 201 205 204 201 200 199 198 198 196 195 194 194 192 189 189 188 184 183 181 178 175 168 158 151 49 27 28 18 9 4 3 3 2 2 
146 137 129 125 124 118 114 112 105 97 87 75 66 46 64 189 190 200 195 195 197 197 197 195 191 191 199 191 191 193 185 192 196 148 118 117 155 175 171 174 176 174 175 182 179 185 197 198 204 208 200 202 203 194 191 195 194 200 196 190 187 189 185 189 201 203 203 206 203 201 201 199 197 196 195 195 195 194 192 190 189 190 187 185 183 181 179 177 172 184 85 30 33 22 11 4 3 3 2 2 
148 142 134 129 125 120 118 115 108 99 90 81 74 46 107 195 189 197 196 198 199 197 195 191 189 187 192 194 191 185 188 186 181 190 186 160 141 146 166 167 165 171 173 178 177 180 193 195 196 206 199 199 204 192 190 193 191 199 197 188 187 186 184 193 204 201 206 206 203 201 202 200 198 196 196 195 195 193 192 191 189 187 186 185 183 179 171 173 168 175 78 35 36 26 15 5 2 3 3 2 
148 142 136 132 126 121 119 114 107 100 92 85 74 44 143 198 191 198 198 197 196 196 198 197 191 187 184 186 190 185 182 183 183 177 178 185 181 158 145 155 163 158 163 171 171 172 184 190 190 202 200 192 200 190 184 192 192 196 192 188 190 184 180 201 201 201 207 206 203 202 202 201 198 196 197 195 195 193 192 191 191 191 186 180 178 175 172 165 160 153 61 43 40 28 18 7 2 3 3 3 
148 143 138 133 128 121 116 113 106 98 92 85 60 103 187 188 194 195 197 201 201 198 195 193 194 193 187 183 183 185 185 179 177 175 176 175 178 181 173 150 139 155 156 151 164 159 171 183 184 193 199 189 196 189 173 192 187 191 192 185 194 180 184 205 199 206 206 204 201 202 202 199 197 196 196 195 195 194 194 192 187 183 188 185 177 173 176 174 158 95 49 52 43 30 19 8 3 3 3 3 
148 143 139 133 126 119 114 111 104 99 92 79 63 166 185 187 191 193 195 197 199 201 200 194 189 189 189 187 181 176 178 179 179 175 172 176 173 176 178 181 167 148 158 149 144 158 154 164 175 178 197 183 186 192 168 190 182 189 190 184 192 177 197 200 201 210 205 202 200 201 200 198 198 198 196 195 194 196 194 189 189 185 181 173 182 173 143 109 78 59 60 54 44 34 21 9 3 3 3 3 
147 144 139 131 124 118 113 109 105 97 87 69 135 184 180 190 192 197 196 193 195 196 198 198 194 189 186 185 184 180 177 175 173 172 172 174 172 173 173 175 182 180 171 172 152 143 151 145 166 164 181 190 178 188 162 183 179 186 185 182 192 178 199 192 209 208 205 203 201 199 198 197 198 197 196 195 194 194 191 187 182 175 180 185 140 82 52 53 62 66 61 55 48 35 23 10 4 3 3 3 
144 142 135 127 121 116 110 105 100 95 76 110 179 181 186 186 190 195 196 196 197 195 193 194 192 192 190 186 182 179 180 178 176 172 170 168 171 174 170 169 172 177 175 173 171 153 137 145 144 171 156 185 166 183 159 174 178 189 185 178 186 180 191 193 207 202 204 202 198 201 200 198 197 196 196 196 191 188 186 177 181 189 151 76 42 46 59 64 65 67 64 57 48 36 23 9 3 3 3 3 
135 133 128 123 117 111 106 99 92 83 69 133 177 181 186 189 189 190 193 196 195 194 195 193 190 188 187 187 183 180 180 179 179 175 169 168 166 166 171 170 169 170 170 170 167 168 152 138 132 149 158 159 163 166 159 161 171 180 182 173 181 185 181 200 199 201 201 198 199 200 198 198 200 196 195 195 188 178 182 193 163 85 27 33 48 52 56 57 60 64 62 56 48 36 22 9 3 3 3 3 
121 120 116 114 110 103 97 91 84 73 76 136 175 177 180 184 186 190 192 195 196 194 193 192 190 188 186 185 184 183 181 177 176 176 172 170 168 164 164 165 167 168 161 160 164 162 166 149 137 123 150 142 157 150 159 142 169 171 176 169 177 177 178 196 194 202 199 200 198 196 198 200 200 196 192 182 185 196 176 99 23 13 42 43 36 44 49 53 54 56 54 50 43 34 22 8 2 3 3 3 
107 107 105 105 102 96 91 81 77 58 100 156 168 177 178 177 180 187 189 192 194 196 197 196 189 188 187 182 184 183 181 180 179 178 174 170 169 168 163 156 159 166 166 157 150 161 157 163 143 141 131 140 140 146 152 130 155 155 165 167 176 169 178 189 194 200 200 193 195 199 202 200 196 192 188 199 188 104 30 5 14 39 44 39 28 34 40 46 49 51 48 45 40 32 21 8 3 3 3 3 
97 97 98 97 93 89 81 74 63 55 123 165 171 171 178 176 178 183 186 190 193 195 193 192 191 188 185 184 181 179 179 179 176 176 176 173 169 164 163 166 161 153 158 162 147 143 156 150 156 145 143 130 132 134 138 132 146 150 154 162 171 165 179 184 197 197 189 194 202 205 199 196 194 196 186 117 19 0 1 5 26 49 48 31 21 26 30 38 43 46 43 39 34 26 16 7 3 3 3 3 
85 87 88 87 84 80 72 66 54 63 151 172 174 173 175 175 178 181 185 188 190 193 194 193 191 188 186 184 181 180 179 178 177 176 176 176 176 173 164 156 159 162 154 138 147 149 130 141 141 148 145 136 128 131 128 132 132 149 138 157 169 163 174 182 192 182 195 205 202 202 198 196 188 159 88 70 86 115 99 68 49 32 27 18 15 16 22 29 35 38 36 31 25 16 9 4 3 3 3 5 
71 76 77 77 75 69 66 62 38 91 178 179 174 174 173 174 177 180 185 185 185 188 190 191 192 191 186 180 181 182 179 177 177 176 174 174 172 171 173 167 154 150 159 153 127 133 143 122 119 134 143 140 134 131 127 127 127 146 132 148 168 160 163 177 177 190 201 196 200 201 197 192 189 174 187 214 215 217 214 208 187 147 79 16 4 12 13 19 25 27 24 21 15 9 5 3 3 3 4 11 
60 66 69 69 67 63 55 50 36 131 185 180 178 176 174 175 178 181 183 183 183 186 186 185 187 189 186 181 181 179 177 176 175 174 173 173 173 169 166 167 166 158 139 143 138 126 121 134 119 112 120 146 142 136 129 134 126 134 133 133 158 152 160 164 180 194 192 200 197 200 201 201 200 202 197 196 197 194 191 190 193 190 191 152 36 2 12 13 16 16 16 13 8 5 4 4 3 3 9 19 
58 61 61 62 59 53 47 39 34 145 183 182 179 179 177 177 178 181 182 187 186 185 187 185 185 185 183 181 181 179 177 177 177 175 173 172 170 168 165 160 160 158 153 134 118 121 123 114 112 114 103 107 127 141 130 126 133 140 141 125 153 145 156 161 182 184 191 190 191 201 204 201 201 201 204 205 201 198 196 192 188 181 171 173 164 44 2 15 9 10 11 7 5 4 4 3 3 5 15 25 
55 56 55 55 51 44 38 27 35 147 176 182 180 181 181 182 182 182 183 185 187 188 186 186 187 186 182 181 180 177 176 176 175 175 174 171 170 170 167 162 155 144 132 134 131 117 106 103 113 108 107 95 113 132 141 147 131 131 124 103 139 151 141 160 168 181 181 190 200 199 198 200 201 203 205 201 195 194 195 192 188 187 178 165 164 160 40 3 9 6 5 4 3 4 4 3 6 16 27 35 
51 52 52 50 45 38 29 19 31 146 173 177 176 179 182 184 183 184 186 183 186 190 186 187 189 186 182 183 181 177 176 175 174 173 170 168 171 170 169 169 163 154 143 130 120 117 110 98 95 105 107 98 152 158 141 160 152 123 106 94 118 147 142 152 170 176 186 195 189 188 195 202 204 204 201 197 195 195 195 193 191 188 182 172 161 161 163 34 3 7 4 5 4 4 4 7 15 26 37 45 
46 46 47 44 39 33 24 13 18 143 182 177 178 181 180 185 186 186 189 188 188 191 188 187 188 188 188 186 182 178 175 175 176 175 172 168 168 163 156 152 141 133 129 129 121 112 108 103 95 90 90 83 114 156 156 162 157 119 110 101 112 143 138 162 167 174 187 193 198 201 203 205 203 200 197 195 194 194 192 191 190 187 182 179 171 154 162 129 4 8 4 5 6 6 9 14 23 32 41 50 
40 40 40 37 34 30 23 9 12 149 185 178 183 183 180 184 187 187 188 187 189 192 189 189 190 189 190 188 183 178 173 174 174 173 174 172 171 170 162 155 144 135 127 115 108 102 96 95 95 93 81 126 150 152 135 142 158 114 108 100 107 121 141 157 166 182 190 187 186 194 197 196 195 193 192 191 190 190 191 189 187 186 180 176 172 168 145 144 69 3 6 9 6 10 16 20 29 39 47 55 
34 34 34 32 28 25 14 2 39 167 171 181 178 185 187 186 189 190 187 189 191 190 190 189 189 186 186 187 182 179 176 175 173 172 172 171 168 164 154 147 143 136 127 116 109 107 105 97 91 85 81 110 136 140 150 125 162 153 131 163 139 106 137 153 166 170 180 187 190 195 197 198 198 194 190 191 189 189 189 188 186 186 181 179 175 166 156 137 163 35 5 9 8 14 19 24 34 44 52 59 
27 29 29 26 22 19 12 2 47 166 172 185 185 188 188 190 191 193 189 193 194 191 192 192 190 187 186 184 183 180 176 175 174 171 171 172 169 165 154 149 145 139 136 130 120 111 106 102 98 90 87 72 65 99 122 114 116 118 144 154 124 117 141 154 173 191 194 196 196 195 195 195 194 191 191 191 191 190 188 186 185 184 180 180 175 166 159 140 145 74 3 14 13 14 20 26 38 48 56 61 
23 23 21 19 16 12 8 3 25 164 185 182 184 184 189 191 193 194 193 195 195 193 194 193 191 189 189 186 183 180 177 177 177 176 174 171 164 156 152 147 145 137 127 117 113 107 103 98 91 84 90 87 68 71 109 125 118 115 91 71 91 128 143 158 171 180 184 188 190 190 193 192 191 191 191 190 190 189 189 188 185 184 180 175 171 166 161 148 134 102 10 12 14 19 22 29 40 51 59 64 
20 18 15 12 9 8 5 6 3 139 181 172 179 186 190 190 191 191 193 196 198 198 195 193 191 192 190 185 182 179 177 176 177 174 172 169 164 158 146 138 131 127 122 113 107 100 93 92 87 82 79 84 147 139 94 115 122 126 103 114 102 130 153 169 179 186 187 189 190 189 189 189 188 190 191 189 188 188 190 190 186 183 179 176 172 165 158 147 138 120 38 10 19 20 25 32 44 53 62 68 
16 14 12 8 5 5 5 6 1 75 184 168 180 184 186 187 190 192 194 197 199 201 201 198 195 195 194 189 184 181 178 177 177 177 173 174 159 144 141 140 142 144 137 125 117 113 109 99 93 90 70 120 190 132 77 103 165 169 118 120 126 153 161 168 175 182 184 186 187 188 189 189 187 187 187 187 186 187 188 188 186 183 178 175 171 168 154 146 135 148 71 11 25 24 26 33 44 53 63 69 
12 9 8 6 5 5 5 5 5 17 136 176 165 168 179 180 188 193 195 196 197 199 200 198 197 196 193 191 185 182 181 179 180 179 173 167 146 145 148 148 146 144 141 136 128 123 117 111 104 100 90 73 84 57 54 67 112 148 147 126 140 170 178 181 177 176 179 180 182 184 187 188 188 187 187 187 187 187 187 186 186 186 182 179 175 169 162 147 159 145 13 21 26 28 29 34 43 50 58 63 
11 8 5 5 5 4 5 5 6 6 6 92 194 191 179 180 188 191 191 191 197 196 197 199 199 197 196 190 190 188 183 181 187 177 161 152 149 153 149 149 152 151 149 147 139 136 132 115 110 106 113 100 82 73 38 55 73 100 130 161 161 169 177 179 181 180 180 180 178 180 183 184 186 187 186 187 187 187 187 187 187 187 185 183 180 175 166 169 142 39 14 28 29 32 35 39 45 50 54 58 
13 9 5 5 5 5 5 5 4 6 7 8 75 112 185 181 179 183 189 192 191 194 199 201 199 197 197 197 195 188 190 191 178 161 156 151 149 155 155 156 157 155 151 155 150 143 138 137 122 119 118 113 125 124 139 106 99 118 149 176 182 176 179 183 179 180 182 182 181 180 182 183 184 186 187 187 188 188 189 190 190 188 187 185 183 175 179 111 25 7 25 28 34 37 41 45 49 50 53 58 
18 9 4 3 6 5 6 7 6 4 6 6 2 2 91 179 196 177 181 188 189 191 196 196 194 195 197 194 193 203 184 160 158 159 157 150 151 157 156 155 158 158 159 155 147 155 156 144 136 143 132 136 133 143 154 130 119 122 169 172 183 186 180 183 184 182 184 184 185 184 184 187 187 186 185 187 189 190 191 192 192 190 187 186 180 188 155 16 27 27 27 33 36 41 46 50 51 50 52 55 
26 15 8 4 6 5 4 6 6 5 5 7 10 8 2 23 127 207 200 183 184 185 184 187 191 191 195 211 202 156 134 155 162 158 155 154 157 158 157 161 165 164 154 155 160 162 154 149 157 151 142 157 148 153 168 145 118 129 174 174 178 187 184 180 185 186 184 184 187 187 187 188 190 189 188 189 189 190 191 192 193 193 191 189 181 194 84 6 26 23 20 29 38 44 49 53 53 50 51 52 
32 20 11 5 5 5 4 4 4 4 5 5 6 7 9 4 5 76 143 188 202 198 200 201 207 206 189 141 68 107 164 161 157 157 158 161 159 158 162 167 164 161 165 165 162 159 157 160 158 160 155 161 160 162 174 171 126 133 169 174 175 179 185 181 180 185 185 184 185 188 188 186 188 190 191 194 192 191 191 191 193 193 193 190 194 167 19 20 20 22 16 18 37 49 51 55 52 49 49 50 
38 24 13 6 4 5 6 5 4 4 4 4 6 4 6 12 11 2 5 42 99 119 129 132 109 80 48 12 97 175 155 157 159 160 161 162 162 165 167 166 166 167 167 165 164 161 163 163 165 164 163 166 167 169 170 177 154 146 153 172 169 177 181 183 183 182 186 187 187 187 188 189 188 187 190 193 194 194 193 192 196 192 190 186 200 103 6 34 25 15 18 15 26 50 54 55 51 46 46 46 
45 29 16 6 4 5 6 4 3 3 3 3 4 4 3 5 10 15 15 8 3 4 5 7 16 23 24 91 171 156 159 165 164 161 163 166 168 169 168 168 170 169 166 165 164 163 162 167 170 167 172 172 174 174 180 182 173 155 152 158 168 170 177 183 184 181 185 189 189 189 189 190 191 190 188 189 192 194 192 193 194 193 190 184 192 57 12 27 20 16 13 14 10 41 55 51 49 44 43 42 
51 35 19 7 4 4 4 3 3 3 4 3 3 3 3 3 6 9 10 14 20 24 31 31 40 31 75 171 158 158 164 165 167 168 169 170 170 168 169 172 169 168 169 168 168 165 165 169 169 171 177 176 181 182 183 189 189 148 163 153 164 167 171 178 182 181 184 187 187 191 190 189 190 191 189 188 190 193 192 193 193 192 188 188 175 28 6 12 11 14 13 10 4 25 56 49 44 41 37 36 
55 41 22 6 3 3 3 3 3 3 4 3 3 4 4 4 4 6 13 16 19 22 29 36 28 67 165 160 156 163 165 165 170 171 172 173 170 171 172 170 170 170 168 170 170 166 168 172 170 174 180 179 183 185 186 191 196 168 138 176 154 161 169 174 180 185 183 183 186 187 191 190 187 190 193 193 191 192 195 195 193 192 186 195 114 2 7 5 7 8 11 8 4 13 51 50 41 36 30 28 
55 44 24 7 4 3 3 3 3 3 3 3 3 3 3 4 5 9 14 17 20 25 32 35 43 151 165 161 166 167 170 175 174 173 174 174 172 171 171 170 169 169 170 170 168 166 170 174 171 176 180 179 181 187 184 191 189 207 95 126 175 150 162 172 173 182 184 184 187 188 190 190 190 190 192 195 194 193 195 194 191 190 189 180 35 3 6 6 5 6 8 7 4 10 44 50 40 32 25 22 
50 39 25 9 4 3 3 3 3 3 3 3 3 3 3 4 7 10 15 19 23 24 33 27 126 172 157 163 167 174 175 174 173 178 177 175 173 172 172 171 168 168 173 169 166 167 175 174 172 179 180 179 182 188 183 188 189 208 134 14 155 164 155 165 171 172 184 183 186 190 186 192 193 189 191 195 197 197 196 195 193 184 201 113 2 6 4 4 5 5 7 6 4 8 40 49 39 30 21 16 
41 30 22 10 3 3 3 3 3 3 3 3 4 5 6 7 11 12 16 21 25 32 21 79 170 165 165 166 177 179 173 172 176 177 175 174 174 174 172 171 170 171 170 168 168 169 174 172 175 178 178 177 181 184 183 186 189 197 186 19 32 156 158 155 164 168 174 182 182 188 190 189 192 191 189 193 196 198 192 193 188 191 164 26 14 3 3 3 4 4 5 6 4 5 36 47 37 29 18 11 
32 23 17 9 4 3 3 3 3 4 5 7 8 9 9 10 13 14 17 21 28 25 47 159 167 163 169 175 180 173 175 178 178 178 175 173 174 176 173 172 172 172 169 169 170 170 172 171 175 176 175 178 180 181 181 185 189 189 201 70 2 51 154 155 150 166 166 179 179 183 190 186 190 192 188 191 194 194 196 191 186 201 98 3 27 9 4 4 5 4 5 7 6 6 32 47 37 28 17 11 
23 18 13 8 4 3 3 3 4 7 9 12 14 14 13 12 14 16 18 21 30 14 109 183 160 165 173 179 177 175 180 181 178 182 180 175 176 176 174 174 174 171 171 171 170 172 175 174 177 177 176 183 183 180 180 185 187 188 202 88 39 68 112 154 156 157 163 162 179 178 186 187 187 192 189 190 191 190 191 190 193 176 22 18 29 18 3 5 8 6 6 8 9 9 28 45 36 27 16 11 
16 13 10 6 3 3 3 4 6 10 14 16 18 18 17 16 16 17 19 21 25 24 154 186 167 170 175 179 179 179 181 182 182 183 181 178 177 176 174 176 178 175 174 176 172 174 177 176 179 178 178 182 184 181 180 184 187 185 202 94 33 70 87 86 144 156 157 161 169 174 182 189 183 188 188 189 190 186 188 182 203 94 2 17 28 26 6 6 9 9 9 11 13 12 25 40 33 24 14 9 
12 10 7 4 3 3 4 7 11 14 18 20 22 23 22 19 18 18 18 19 23 18 121 182 172 173 177 180 180 183 184 183 184 183 181 180 179 179 176 178 179 176 175 177 176 178 178 178 181 179 180 182 186 184 184 185 185 181 204 91 20 69 73 42 93 152 159 159 161 169 174 181 182 179 186 186 182 185 183 194 102 10 15 11 26 30 16 5 13 14 14 15 21 18 24 36 28 19 9 5 
8 7 5 4 4 4 6 9 13 18 21 25 26 27 24 20 19 18 16 16 19 15 29 162 171 178 184 182 187 190 188 185 182 181 184 182 185 180 176 177 179 177 177 177 179 180 181 181 182 182 182 185 187 185 188 188 185 180 205 97 30 71 57 36 87 97 125 160 153 164 170 174 176 175 181 179 169 183 197 123 17 23 28 29 29 33 23 7 20 22 19 22 23 24 24 31 25 15 8 4 
6 5 4 4 5 5 9 13 16 20 23 27 29 29 26 20 18 17 15 13 13 16 5 109 179 184 189 186 192 193 189 187 186 184 188 181 183 180 179 178 178 178 178 177 179 181 183 183 181 184 186 187 188 186 186 189 187 182 205 82 31 66 57 43 82 83 59 99 163 160 162 169 170 169 181 183 162 136 80 26 32 25 26 30 29 36 36 18 13 32 30 23 29 28 22 25 22 14 11 7 
4 4 4 4 5 5 12 20 21 23 26 29 30 31 28 20 16 15 14 11 10 10 10 12 174 199 180 194 191 193 190 186 188 186 185 181 182 180 177 178 178 177 176 176 179 183 184 183 182 186 190 188 188 187 187 188 185 187 194 49 41 58 56 34 68 73 71 46 91 154 161 165 171 169 187 186 98 29 50 90 33 24 30 21 23 34 39 38 17 24 41 30 29 30 25 24 22 18 15 13 
4 4 5 6 8 8 14 23 24 25 27 29 29 29 25 18 14 13 13 11 11 11 15 7 57 171 193 194 190 193 192 189 189 185 182 182 182 180 176 177 179 177 175 176 179 181 186 184 181 188 189 187 188 190 190 190 186 196 163 23 48 64 54 38 71 63 85 77 54 93 132 131 136 135 129 84 38 35 95 99 37 20 36 30 43 44 44 62 47 24 42 40 28 34 34 31 27 24 21 20 
4 4 6 8 10 10 15 23 26 27 27 28 29 27 22 16 13 12 12 13 14 15 11 21 2 75 200 183 190 196 194 192 190 187 184 181 179 180 178 178 178 176 174 176 180 179 187 182 180 190 187 185 186 188 190 189 184 202 93 10 61 82 58 40 79 63 79 75 79 81 39 23 52 49 58 63 42 30 73 85 38 21 32 29 57 69 66 75 73 40 43 80 57 36 36 34 29 28 28 27 
4 4 6 8 9 11 17 24 28 30 28 28 28 25 22 16 13 12 13 14 16 18 19 21 26 24 132 186 189 193 193 192 190 186 183 181 178 177 175 176 177 176 174 175 178 180 186 178 178 187 187 181 185 186 186 183 188 159 24 37 97 88 52 66 77 61 77 71 80 81 34 35 51 48 60 61 46 25 44 75 46 23 34 33 49 82 80 81 86 58 38 96 98 42 34 34 32 34 35 35 
8 7 7 8 11 15 20 26 31 32 30 28 25 24 22 16 13 13 13 16 17 20 23 23 28 31 32 116 194 186 191 192 190 182 181 181 178 176 173 173 175 174 172 174 175 181 184 177 178 180 186 181 182 180 185 176 189 123 11 67 118 86 49 65 70 57 61 61 91 73 27 41 48 49 59 66 47 23 26 44 44 24 39 38 49 88 81 82 72 57 30 50 83 47 33 36 38 39 41 41 
14 11 10 11 15 19 23 28 33 34 31 29 28 25 22 16 13 13 14 17 19 20 23 27 28 37 36 41 170 193 181 182 183 179 178 178 179 178 172 169 172 171 169 173 174 177 178 173 176 176 183 180 177 176 177 172 197 78 18 83 113 94 72 59 66 58 61 65 95 65 32 44 49 47 56 69 53 29 15 24 64 50 41 35 51 89 80 85 79 45 31 36 56 42 32 38 46 45 46 48 
17 15 13 13 19 25 25 29 33 34 33 31 29 25 21 17 12 12 15 17 20 23 26 30 31 32 43 37 79 167 177 181 176 180 179 175 177 177 172 169 170 167 166 171 176 175 173 171 175 174 179 173 173 174 171 182 146 29 41 75 81 78 72 74 72 63 74 85 95 63 49 51 47 45 50 65 71 54 27 44 101 84 59 51 58 82 84 82 81 58 33 42 55 42 31 36 50 53 53 54 
22 21 18 20 24 29 29 32 37 36 34 33 30 26 22 18 13 13 17 18 21 26 29 32 33 36 38 43 35 45 72 78 82 125 161 177 176 174 176 171 166 165 167 170 174 174 169 167 174 169 176 172 165 161 169 159 75 26 47 59 56 52 48 65 73 56 50 88 93 52 40 45 47 48 49 70 89 72 74 96 104 103 72 64 71 86 76 72 73 70 61 47 50 50 40 43 55 58 56 57 
28 25 24 27 29 31 32 34 40 38 36 35 33 29 25 20 14 13 17 18 21 26 30 33 36 36 40 40 44 38 26 22 14 10 41 121 174 179 174 166 167 160 167 167 169 173 165 164 171 167 170 161 163 165 147 112 54 15 55 52 46 42 44 76 77 56 57 99 86 46 41 45 48 49 48 58 64 60 63 80 91 101 83 61 78 84 75 65 70 66 68 63 43 52 53 56 59 59 57 58 
32 30 30 32 33 34 34 37 42 41 40 38 34 30 25 19 13 12 15 17 20 23 26 31 33 36 36 40 40 39 37 32 27 20 7 14 62 124 169 171 165 153 159 165 167 170 158 163 168 161 161 152 181 173 143 115 32 3 39 54 48 48 67 104 85 60 81 104 77 47 45 47 48 50 51 50 50 64 68 83 95 107 97 73 78 81 85 73 63 64 62 64 38 46 52 56 57 57 56 57 
38 38 38 38 39 39 38 40 44 46 43 38 33 29 25 20 13 11 12 14 18 20 22 26 30 32 35 36 39 36 36 33 31 26 24 16 2 6 38 87 143 157 158 158 159 162 150 157 165 154 159 169 116 131 157 100 17 3 14 51 73 55 72 102 85 69 93 104 71 47 48 50 52 54 54 55 59 76 99 132 104 109 86 71 84 82 87 79 70 65 60 64 31 34 43 49 53 54 55 56 
47 47 48 48 47 46 45 44 48 50 43 37 33 30 28 22 15 11 11 12 14 17 18 22 27 30 32 34 37 37 36 34 31 30 25 18 14 6 2 1 19 70 126 154 150 153 140 148 163 168 171 137 11 107 158 75 4 8 11 32 77 73 86 124 115 89 99 103 55 43 50 51 53 56 56 57 58 77 101 126 120 133 98 87 89 83 96 87 81 66 57 65 34 24 34 42 48 50 51 52 
53 51 50 52 52 51 49 50 52 50 43 38 36 35 33 25 17 13 12 11 11 13 15 17 21 25 29 32 35 36 37 37 34 31 25 17 11 5 7 6 5 2 17 88 151 159 133 154 151 147 54 4 4 60 92 36 9 18 19 24 61 83 111 153 122 99 104 97 44 41 49 51 55 58 59 59 62 79 83 115 120 98 88 95 95 93 113 104 83 72 65 75 52 20 26 33 40 43 45 47 
55 53 54 55 56 54 51 53 54 51 45 42 41 39 37 31 23 19 16 13 12 13 13 15 18 22 26 30 33 35 38 39 36 30 23 18 12 7 4 7 5 8 4 3 34 72 60 59 23 8 2 7 6 5 7 11 18 25 27 32 61 75 97 135 119 114 109 86 33 40 47 51 55 58 61 61 67 85 87 110 129 105 102 102 99 104 127 121 100 81 73 78 58 21 23 25 29 34 38 40 
57 55 55 57 58 57 55 55 54 51 47 45 43 42 40 35 29 26 23 19 16 15 15 15 17 19 22 28 32 35 37 37 34 28 21 16 11 5 4 4 5 3 5 5 1 0 1 1 3 4 9 6 7 9 14 23 28 36 37 42 64 70 76 94 91 104 114 74 27 37 44 48 54 56 59 60 69 89 88 112 125 103 110 112 111 112 132 134 108 87 80 85 69 30 23 22 23 26 29 30 
59 58 57 60 60 58 57 53 51 49 47 46 44 44 43 38 33 31 30 26 23 20 17 15 15 17 20 27 30 32 33 31 28 25 18 12 8 4 4 4 4 4 3 4 5 6 5 5 4 4 5 7 11 19 26 32 37 43 46 51 66 66 71 74 65 98 114 63 31 38 39 42 48 53 56 58 68 91 95 120 121 112 123 122 118 117 139 152 118 97 89 84 82 38 26 25 22 21 23 24 
63 64 62 64 63 59 56 51 47 45 45 46 46 46 45 42 38 37 36 32 29 26 21 18 17 19 21 24 26 28 28 26 23 21 14 9 5 4 4 4 4 4 4 4 4 4 4 3 3 5 10 15 22 28 33 40 44 49 54 57 67 67 69 69 70 120 113 54 36 38 30 34 39 47 52 55 65 95 102 127 124 109 128 126 122 124 147 163 135 106 96 84 94 50 26 29 27 21 21 21 
